<svg xmlns="http://www.w3.org/2000/svg" width="40.75" height="49.563" viewBox="0 0 40.75 49.563">
  <defs>
    <style>
      .cls-1 {
        fill: #24c193;
        fill-rule: evenodd;
      }
    </style>
  </defs>
  <path id="_1.svg" data-name="1.svg" class="cls-1" d="M134.288,143.164a8.367,8.367,0,0,1-4.026-1.114,11.557,11.557,0,0,1-1.893-1.314l-0.01.15c-0.04.727-.088,1.588-0.157,2.347v0.006a0.424,0.424,0,0,1-.01.088c-0.043.458-.095,0.873-0.156,1.193l6.312,3.415,6.222-3.368c-0.023-.107-0.043-0.224-0.062-0.349-0.038-.243-0.076-0.535-0.11-0.832a0.472,0.472,0,0,1-.042-0.191,0.5,0.5,0,0,1,.01-0.093l-0.006-.055h0v0c-0.071-.73-0.123-1.467-0.168-2.1l-0.012-.182a11.627,11.627,0,0,1-1.866,1.286,8.352,8.352,0,0,1-4.026,1.114h0Zm11.083,13.186v-0.474H145.28a2.656,2.656,0,0,0-1.469.851h0a2.388,2.388,0,0,0-.563,1.583,2.641,2.641,0,0,0,5.275,0,2.386,2.386,0,0,0-.554-1.572l-0.009-.013a2.656,2.656,0,0,0-1.471-.849h-0.107v0.471a2.05,2.05,0,0,1,1.633,1.963,2.132,2.132,0,0,1-4.258,0,2.051,2.051,0,0,1,1.615-1.96h0Zm0-1.43h-0.143a0.622,0.622,0,0,0-.105.01,3.42,3.42,0,0,0-2.884,3.379,3.651,3.651,0,0,0,7.291,0,3.418,3.418,0,0,0-2.852-3.372,0.47,0.47,0,0,0-.136-0.018h-0.161v-7.653l0.006,0a14.671,14.671,0,0,1,5.476,2.886,4.982,4.982,0,0,1,1.8,3.7h0V162.7a1.861,1.861,0,0,1-.6,1.354,2.065,2.065,0,0,1-1.424.559H135.721l1.211-4.239,1.156-2.133,0,0h0A43.227,43.227,0,0,0,143.44,146.5c0.183,0.038.361,0.077,0.538,0.117,0.322,0.073.639,0.15,0.948,0.231l0.437,0.121c0,0.067.008,0.133,0.008,0.2v7.751h0Zm-0.341-9.033a3.738,3.738,0,0,0-.957-1.1,5.326,5.326,0,0,0-2.621-1.077c0.017,0.124.036,0.246,0.054,0.365,0.025,0.165.053,0.31,0.077,0.421l1.706,1c0.306,0.063.614,0.129,0.921,0.2,0.276,0.065.548,0.128,0.82,0.2h0Zm-3.687-3.15a6.421,6.421,0,0,1,3.377,1.32,4.3,4.3,0,0,1,1.534,2.2l0.409,0.1a15.914,15.914,0,0,1,5.9,3.121,5.9,5.9,0,0,1,2.1,4.386h0l0,8.844a2.785,2.785,0,0,1-.887,2.027h0a3.1,3.1,0,0,1-2.137.843H116.935a3.1,3.1,0,0,1-2.141-.843,2.781,2.781,0,0,1-.887-2.027v-8.844a5.938,5.938,0,0,1,2.282-4.536,16.913,16.913,0,0,1,6.35-3.131l0.019-.006h0l0.463-.115a4.83,4.83,0,0,1,1.22-1.9,4.994,4.994,0,0,1,2.989-1.386c0.052-.641.091-1.343,0.125-1.944,0.022-.384.039-0.734,0.06-0.989-0.273-.279-0.536-0.57-0.786-0.873a15.3,15.3,0,0,1-2.479-4.228c-1.053-2.74-.861-4.594-0.912-7.285-0.126-6.5-.221-11.475,11.05-11.475s11.178,4.973,11.053,11.475c-0.021,1.14.032,2.612-.075,3.782l0,0.011v0.012a13.157,13.157,0,0,1-.836,3.48,15.3,15.3,0,0,1-2.478,4.228q-0.4.48-.829,0.918c0.025,0.286.051,0.618,0.077,0.991,0.042,0.586.089,1.264,0.145,1.852h0Zm-18.56,5.309a6.685,6.685,0,0,0-4.122,1.8l0,0h0a6.037,6.037,0,0,0-1.921,4.393h0a0.486,0.486,0,0,0,.412.471v0.312a9.251,9.251,0,0,0,.485,3.576,4.4,4.4,0,0,0,2.091,2.18,0.47,0.47,0,0,0,.3.543l1.125,0.439a1.512,1.512,0,0,0,1.1,0,1.388,1.388,0,0,0,.767-0.726l0-.009a1.276,1.276,0,0,0,0-1.038,1.378,1.378,0,0,0-.776-0.733l-1.125-.439a0.516,0.516,0,0,0-.657.262l-0.351.81a3.415,3.415,0,0,1-1.536-1.64,8.583,8.583,0,0,1-.414-3.221V154.72h0.983a0.492,0.492,0,0,0,.506-0.478h0a3.367,3.367,0,0,1,1.069-2.449,3.8,3.8,0,0,1,5.168,0,3.375,3.375,0,0,1,1.069,2.449h0a0.49,0.49,0,0,0,.5.478h1v0.305a8.565,8.565,0,0,1-.413,3.221,3.425,3.425,0,0,1-1.538,1.64l-0.35-.81a0.517,0.517,0,0,0-.658-0.262l-1.125.439a1.39,1.39,0,0,0-.776.733,1.283,1.283,0,0,0-.022.993,0.587,0.587,0,0,0,.037.086,1.391,1.391,0,0,0,.754.694,1.492,1.492,0,0,0,1.046.021,0.522,0.522,0,0,0,.086-0.032l1.089-.424a0.475,0.475,0,0,0,.3-0.543,4.41,4.41,0,0,0,2.091-2.18,6.654,6.654,0,0,0,.445-2.162c0.339,0.581.694,1.175,1.069,1.805h0l1.665,2.972,0.7,3.4H116.935a2.068,2.068,0,0,1-1.427-.561,1.858,1.858,0,0,1-.593-1.352v-8.844a5.044,5.044,0,0,1,1.956-3.833,15.868,15.868,0,0,1,5.93-2.915c-0.012.132-.018,0.259-0.018,0.392v0.543h0Zm4.356-4.29a3.989,3.989,0,0,0-2.181,1.08,3.858,3.858,0,0,0-.714.937c0.422-.1.819-0.2,1.059-0.249l1.722-1.066a6.654,6.654,0,0,0,.114-0.7h0Zm-3.286,3.1a3.474,3.474,0,0,0-.06.649v0.541a6.833,6.833,0,0,1,1.956.434c-0.055-.171-0.112-0.346-0.172-0.528q-0.226-.7-0.435-1.411c-0.363.087-.847,0.2-1.289,0.315h0Zm1.555,13.025-0.66.257a0.4,0.4,0,0,0-.229.216,0.408,0.408,0,0,0-.014.284,0.205,0.205,0,0,1,.022.05,0.42,0.42,0,0,0,.218.191,0.442,0.442,0,0,0,.326,0l0.006,0,0.655-.254-0.324-.744h0Zm-3.554.257-0.661-.257-0.323.744,0.661,0.257a0.439,0.439,0,0,0,.325,0,0.423,0.423,0,0,0,.219-0.194,0.462,0.462,0,0,1,.019-0.047,0.392,0.392,0,0,0-.011-0.284,0.406,0.406,0,0,0-.229-0.216h0Zm5.188-10.993c-0.177-.49-0.344-0.978-0.5-1.469l-0.048-.145,5.414,4.9a0.524,0.524,0,0,0,.712-0.017,0.509,0.509,0,0,0,.078-0.1h0l0.232-.4,0.024,0.055a0.4,0.4,0,0,0,.042.077,0.716,0.716,0,0,1,.061.137,0.275,0.275,0,0,1,.008.1l0,0.016c-0.244,1.9-.476,3.534-0.713,5.167l-0.226,1.591c-0.255-.431-0.514-0.864-0.764-1.281l0,0,0,0c-0.654-1.1-1.248-2.093-1.8-3.093a0.478,0.478,0,0,0,.3-0.437h0a6.031,6.031,0,0,0-1.919-4.391v0h0a6.524,6.524,0,0,0-.889-0.705h0Zm0.176,1.378a5.432,5.432,0,0,0-.847-0.657,0.385,0.385,0,0,1-.06-0.039,5.8,5.8,0,0,0-6.941.7l0,0a5.132,5.132,0,0,0-1.6,3.24h0.89a4.325,4.325,0,0,1,1.34-2.648,4.847,4.847,0,0,1,6.594,0,4.325,4.325,0,0,1,1.34,2.648h0.89a5.117,5.117,0,0,0-1.6-3.24l0,0h0Zm19.459,7.037h0a1.026,1.026,0,0,1,0,1.5v0a1.171,1.171,0,0,1-1.583,0l0,0a1.028,1.028,0,0,1,0-1.5h0a1.168,1.168,0,0,1,1.583,0h0Zm-19.2-12.243,6.187,3.35-1.1,1.9-0.006.01-0.006.009-0.006.011-0.419.721-5.822-5.27,1.173-.726h0Zm14.825,0.723-5.741,5.269-0.416-.715-0.019-.032-1.1-1.9,6.112-3.306,1.165,0.679h0Zm-5.756,12.852-0.207-1.436c-0.234-1.634-.468-3.268-0.712-5.169a0.287,0.287,0,0,1,.007-0.1,0.649,0.649,0,0,1,.074-0.154,0.42,0.42,0,0,0,.03-0.06h0l0.022-.055,0.232,0.4h0a0.462,0.462,0,0,0,.079.1,0.522,0.522,0,0,0,.712.01l5.263-4.829a42.813,42.813,0,0,1-4.84,10.175h0c-0.216.363-.438,0.738-0.662,1.118h0Zm-1.409-8.052-0.792-1.363-0.794,1.363,0.321,0.747a1.481,1.481,0,0,1,.155.35,1.15,1.15,0,0,1,.036.462l0,0.016c-0.232,1.813-.472,3.5-0.714,5.179-0.137.961-.276,1.922-0.405,2.86h0l1.062,4.164h0.561l1.161-4.335v0c-0.121-.876-0.252-1.787-0.383-2.7-0.24-1.685-.482-3.372-0.715-5.185a1.165,1.165,0,0,1,.035-0.462,1.571,1.571,0,0,1,.156-0.35l0.32-.747h0Zm9.114-19.6a12.29,12.29,0,0,1-.774,3.181,14.206,14.206,0,0,1-2.324,3.962,11.847,11.847,0,0,1-3.346,2.84,6.809,6.809,0,0,1-7.042,0,11.861,11.861,0,0,1-3.346-2.84,14.332,14.332,0,0,1-2.325-3.962,12.255,12.255,0,0,1-.772-3.185l0.6-2.406a7.527,7.527,0,0,0,.242-1.357c0.038-.407.048-0.832,0.057-1.248a8.791,8.791,0,0,1,.106-1.4,2.328,2.328,0,0,1,.482-1.08,1.863,1.863,0,0,1,1.568-.652,11.474,11.474,0,0,1,2.466.441,0.405,0.405,0,0,0,.082.019,14.217,14.217,0,0,0,8.769-.008h0a11.554,11.554,0,0,1,2.5-.451,1.861,1.861,0,0,1,1.548.63l0.017,0.022a2.326,2.326,0,0,1,.483,1.081,8.7,8.7,0,0,1,.107,1.4c0.009,0.416.02,0.843,0.057,1.248a7.368,7.368,0,0,0,.249,1.37l0.591,2.4h0Zm-20.032-5.207a8.2,8.2,0,0,1,.117-1.378,3.235,3.235,0,0,1,.677-1.5,2.837,2.837,0,0,1,2.365-1.019,12.273,12.273,0,0,1,2.73.478l0.03,0.007a13.33,13.33,0,0,0,8.3,0l0,0a12.337,12.337,0,0,1,2.756-.483,2.831,2.831,0,0,1,2.337.991l0.026,0.026a3.236,3.236,0,0,1,.679,1.5,8.18,8.18,0,0,1,.117,1.371c0.04-5.241-.651-9.085-10.069-9.085S124.182,120.791,124.222,126.035Z" transform="translate(-113.906 -116)"/>
</svg>
