<svg xmlns="http://www.w3.org/2000/svg" width="41.25" height="42.594" viewBox="0 0 41.25 42.594">
  <defs>
    <style>
      .cls-1 {
        fill: #24c193;
        fill-rule: evenodd;
      }
    </style>
  </defs>
  <path id="_2.svg" data-name="2.svg" class="cls-1" d="M144.574,207.074a15.648,15.648,0,0,0-2.353-1.91,15.4,15.4,0,0,0-2.672-1.411l-0.023-.012a15.8,15.8,0,0,0-8.926-.852,15.376,15.376,0,0,0-2.9.862v0a15.4,15.4,0,0,0-2.672,1.41,15.761,15.761,0,0,0-2.353,1.907l0,0a15.343,15.343,0,0,0-1.932,2.322,15.176,15.176,0,0,0-2.305,5.5,15.28,15.28,0,0,0,0,5.976,15.176,15.176,0,0,0,2.305,5.5,15.455,15.455,0,0,0,1.934,2.322l0.025,0.026a15.581,15.581,0,0,0,2.329,1.884,15.546,15.546,0,0,0,5.564,2.275,15.862,15.862,0,0,0,6.059,0,15.522,15.522,0,0,0,2.893-.864v0a15.4,15.4,0,0,0,2.672-1.411,15.7,15.7,0,0,0,2.353-1.908l0.024-.024a15.3,15.3,0,0,0,1.908-2.3,15.105,15.105,0,0,0,2.308-5.5,15.4,15.4,0,0,0,0-5.98,15.105,15.105,0,0,0-2.308-5.5,15.552,15.552,0,0,0-1.932-2.322v0h0Zm8.536-2.282-3,1.928c-0.2-.282-0.4-0.559-0.609-0.832l-0.049-.061-0.01-.012-0.059-.075-0.008-.009a19.788,19.788,0,0,0-5.888-5.016l-0.034-.021-0.072-.039-0.012-.006-0.083-.045-0.013-.007-0.071-.037a19.857,19.857,0,0,0-1.933-.916c-0.2-.083-0.405-0.162-0.611-0.238l1.177-3.332a23.417,23.417,0,0,1,11.275,8.718h0Zm-4.353-5.977a24.393,24.393,0,0,1,5.424,5.856,0.469,0.469,0,0,1-.142.656l-3.4,2.188a19.262,19.262,0,0,1,1.463,2.821,19.535,19.535,0,0,1,0,15.086,19.765,19.765,0,0,1-4.338,6.407,20.148,20.148,0,0,1-28.267,0,19.739,19.739,0,0,1-4.34-6.407,19.535,19.535,0,0,1,0-15.086,19.262,19.262,0,0,1,1.463-2.821l-3.4-2.188a0.471,0.471,0,0,1-.142-0.656,24.34,24.34,0,0,1,5.427-5.854,24.6,24.6,0,0,1,7.055-3.8,0.48,0.48,0,0,1,.611.291L127.5,199.1a20.291,20.291,0,0,1,12.253,0l1.336-3.786a0.48,0.48,0,0,1,.611-0.291,24.655,24.655,0,0,1,7.057,3.8h0Zm0.831,8.842a18.589,18.589,0,0,1-2.51,23.5,19.161,19.161,0,0,1-26.9,0,18.758,18.758,0,0,1-4.133-6.095,18.56,18.56,0,0,1,1.619-17.4l0.019-.029c0.088-.132.178-0.266,0.271-0.4l0.055-.078,0,0a18.869,18.869,0,0,1,2.167-2.553,19.074,19.074,0,0,1,4.272-3.175l0.018-.011,0.014,0a18.95,18.95,0,0,1,2.884-1.263c0.021-.009.042-0.018,0.061-0.028a19.374,19.374,0,0,1,12.407,0,0.383,0.383,0,0,0,.059.024,19.516,19.516,0,0,1,2.712,1.171l0.014,0.007,0.085,0.047,0,0,0.015,0.007a19.164,19.164,0,0,1,4.358,3.222,18.906,18.906,0,0,1,2.224,2.633l0.009,0.014,0.046,0.066c0.072,0.107.144,0.211,0.214,0.319l0.017,0.025h0ZM131.557,220.65a0.488,0.488,0,0,1-.682,0,0.477,0.477,0,0,1,0-.673l1.213-1.195-7.861-5.8a0.472,0.472,0,0,1-.1-0.664l1.411-1.864a0.489,0.489,0,0,1,.674-0.1l6.549,4.83-0.123-.87a0.481,0.481,0,0,1,.954-0.129l0.252,1.8,0.614,0.452,8.071-7.965a0.488,0.488,0,0,1,.682,0,0.471,0.471,0,0,1,0,.671l-7.973,7.87,1.02,0.752a0.471,0.471,0,0,1,.1.666l-1.409,1.861a0.489,0.489,0,0,1-.47.186l1.394,9.9a0.481,0.481,0,0,1-.953.131L133.4,219.754l-0.536-.4-1.311,1.292h0Zm2.906-1.3-1.34-.989-0.03-.021-7.9-5.83,0.835-1.1,8.179,6.031,0.03,0.024,1.065,0.784-0.835,1.1h0Zm-15.376-19.786a23.619,23.619,0,0,1,6.329-3.489l1.176,3.332q-0.306.114-.608,0.238a20.239,20.239,0,0,0-2.267,1.1l-0.059.036-0.023.011-0.083.048h0a19.871,19.871,0,0,0-5.565,4.758l-0.034.044-0.024.03-0.052.063-0.007.011q-0.378.477-.728,0.978l-3-1.926a23.323,23.323,0,0,1,4.945-5.231h0Zm23.67,4.812a16.734,16.734,0,0,1,2.5,2.026h0a16.3,16.3,0,0,1,2.049,2.465,16.015,16.015,0,0,1,2.768,9.01,16.2,16.2,0,0,1-.313,3.174,16.072,16.072,0,0,1-2.453,5.84,16.606,16.606,0,0,1-2.026,2.438l-0.025.028a16.262,16.262,0,0,1-2.5,2.022,16.439,16.439,0,0,1-2.837,1.5v0l0,0a16.2,16.2,0,0,1-3.074.918,16.758,16.758,0,0,1-6.427,0,16.227,16.227,0,0,1-3.074-.918,16.477,16.477,0,0,1-5.313-3.5L122,229.357a16.512,16.512,0,0,1-2.05-2.468,16.05,16.05,0,0,1-2.452-5.841,16.056,16.056,0,0,1,2.452-12.181A16.477,16.477,0,0,1,122,206.4h0a16.49,16.49,0,0,1,5.338-3.527v0l0,0a16.491,16.491,0,0,1,3.076-.918,16.78,16.78,0,0,1,6.421,0,16.532,16.532,0,0,1,3.055.909l0.027,0.009A16.8,16.8,0,0,1,142.757,204.375Z" transform="translate(-113 -195)"/>
</svg>
