<svg xmlns="http://www.w3.org/2000/svg" width="40.875" height="42.219" viewBox="0 0 40.875 42.219">
  <defs>
    <style>
      .cls-1 {
        fill: #24c193;
        fill-rule: evenodd;
      }
    </style>
  </defs>
  <path id="_3.svg" data-name="3.svg" class="cls-1" d="M131.145,268.156l-1.036-1.5-5.042,3.472,6.078-1.977h0Zm21.514,13.68v-7.811a2.034,2.034,0,0,0-.6-1.434h0a2.032,2.032,0,0,0-1.439-.594H117.169a2.037,2.037,0,0,0-2.038,2.028V301.18a2.02,2.02,0,0,0,.6,1.433l0,0a2.032,2.032,0,0,0,1.439.594h33.452a2.04,2.04,0,0,0,2.038-2.029V294.5H137.7a1.785,1.785,0,0,1-1.259-.52v0a1.759,1.759,0,0,1-.524-1.252v-9.112a1.772,1.772,0,0,1,.492-1.221l0.032-.032a1.778,1.778,0,0,1,1.259-.52h14.962Zm1.016,12.659v6.685a3.019,3.019,0,0,1-.894,2.148,3.055,3.055,0,0,1-2.16.893H117.169a3.042,3.042,0,0,1-2.152-.887l-0.006-.006h0l0,0a3.018,3.018,0,0,1-.9-2.146V274.025a3.023,3.023,0,0,1,.9-2.15,3.055,3.055,0,0,1,2.16-.891h0.1l12.6-8.67a1.786,1.786,0,0,1,2.476.451l2.832,4.079,10.052-3.272a0.4,0.4,0,0,1,.072-0.022,1.783,1.783,0,0,1,2.194,1.108c0.008,0.022.015,0.046,0.024,0.072l2.051,6.254h1.059a3.057,3.057,0,0,1,2.158.891h0a3.03,3.03,0,0,1,.894,2.15v7.811h0.8a0.506,0.506,0,0,1,.507.507v11.646a0.506,0.506,0,0,1-.507.506h-0.8Zm-34.622-23.511,11.382-7.837a0.784,0.784,0,0,1,.575-0.124,0.774,0.774,0,0,1,.49.315l2.662,3.835-2.01.654-1.5-2.154a0.505,0.505,0,0,0-.7-0.13l-7.9,5.441h-2.993Zm6.672,0,19.838-6.459h0a0.763,0.763,0,0,1,.965.479l0,0,1.959,5.975h-1.939l-1.385-4.218a0.5,0.5,0,0,0-.639-0.324l-13.949,4.542h-4.856Zm8.127,0h4.369l5.312-1.73a0.506,0.506,0,1,1,.313.963l-2.354.767h3.993l-1.125-3.424-10.508,3.424h0Zm20.118,11.865v10.632H137.7a0.783,0.783,0,0,1-.543-0.221,0.772,0.772,0,0,1-.222-0.539v-9.112a0.754,0.754,0,0,1,.205-0.516l0.02-.022a0.77,0.77,0,0,1,.54-0.222H153.97Zm-11.055,2.808a2.513,2.513,0,1,1-1.783.735,2.513,2.513,0,0,1,1.783-.735h0Zm-2.5.017a3.549,3.549,0,0,1,5,0A3.538,3.538,0,1,1,140.413,285.674Z" transform="translate(-114.125 -262)"/>
</svg>
