<svg xmlns="http://www.w3.org/2000/svg" width="41.25" height="48.062" viewBox="0 0 41.25 48.062">
  <defs>
    <style>
      .cls-1 {
        fill: #24c193;
        fill-rule: evenodd;
      }
    </style>
  </defs>
  <path id="_4.svg" data-name="4.svg" class="cls-1" d="M125.868,346.776l15.283-16.642a0.456,0.456,0,0,1,.688,0l2.088,2.275,2.151-2.34a0.456,0.456,0,0,1,.687,0l4.834,5.262a0.566,0.566,0,0,1,0,.751l-2.15,2.34,2.091,2.275a0.568,0.568,0,0,1,0,.751l-0.707.77a4.057,4.057,0,0,1,.488,1.943c0,0.072,0,.14-0.006.209a22.055,22.055,0,0,1,2.218,5.333,23.033,23.033,0,0,1,.785,5.983,22.111,22.111,0,0,1-5.7,14.993q-0.533.581-1.1,1.113v5.664a0.511,0.511,0,0,1-.487.533h-5.3a0.512,0.512,0,0,1-.487-0.533v-1.731a18.043,18.043,0,0,1-12.77,0v1.734a0.512,0.512,0,0,1-.489.533h-5.3a0.511,0.511,0,0,1-.488-0.533V371.79a20.945,20.945,0,0,1-3.829-4.832h-4.792a0.511,0.511,0,0,1-.486-0.532v-3.98a0.507,0.507,0,0,1,.486-0.529H136.1a0.509,0.509,0,0,1,.489.529v3.98a0.513,0.513,0,0,1-.489.532h-11a14.211,14.211,0,0,0,3.982,2.885,13.187,13.187,0,0,0,5.759,1.321,13.615,13.615,0,0,0,10.052-4.533,16.151,16.151,0,0,0,4.162-10.945,16.829,16.829,0,0,0-.516-4.157,16.292,16.292,0,0,0-1.41-3.63,3.285,3.285,0,0,1-1.095-.459l-9.781,10.651a0.461,0.461,0,0,1-.689,0l-2.089-2.278-2.149,2.343a0.463,0.463,0,0,1-.689,0l-4.832-5.264a0.559,0.559,0,0,1,0-.749l2.148-2.34-2.09-2.277a0.565,0.565,0,0,1,0-.75h0Zm6.921,8.288-4.14-4.512-1.806,1.966,4.143,4.51,1.8-1.964h0Zm17.036-12.574,0,0,0,0v0l0,0h0l0,0,0,0,0,0,0,0h0a2.584,2.584,0,0,0-.2-0.249,2.444,2.444,0,0,0-1.56-.793h0l-0.019,0h-0.01l-0.008,0-0.018,0h-0.02l-0.019,0h-0.036l-0.019,0h-0.075a2.409,2.409,0,0,0-1.783.8h0a2.874,2.874,0,0,0-.735,1.943v0.109l0,0.014,0,0.019h0v0.071l0,0.013,0,0.017v0.006a2.858,2.858,0,0,0,.73,1.7,2.421,2.421,0,0,0,1.72.8h0.163l0.023,0h0.007l0.021,0h0.011l0.02,0h0.013l0.015,0,0.018,0h0.014l0.016,0,0.014,0h0.019l0.009,0,0.022,0h0.009l0.023-.006h0.006l0.025,0h0l0.026,0h0l0.029,0h0l0.027-.007h0l0.025-.006h0l0.023-.007,0.01,0,0.019,0,0.01,0,0.019,0h0.011l0.018-.005,0.013,0,0.014,0,0.03-.009,0.016,0,0.011,0,0.019-.007,0.008,0,0.029-.01,0.023-.009h0l0.026-.01,0.027-.01h0l0.029-.011h0l0.027-.012,0.08-.034,0.008,0,0.019-.008a2.476,2.476,0,0,0,.688-0.483A2.612,2.612,0,0,0,150,345.56h0l0.015-.03h0l0.013-.025h0l0.011-.026,0,0,0.012-.025,0,0,0.011-.023,0-.008,0.01-.019,0-.009,0.009-.02,0.006-.011,0.008-.016,0-.013,0.019-.046,0.008-.016a2.939,2.939,0,0,0,.21-1.1,2.893,2.893,0,0,0-.522-1.671h0Zm-4.552,4.282a3.956,3.956,0,0,1-.928-2.195l0-.026v0l0-.026,0-.019V344.5l0-.027,0-.012,0-.017v-0.031l0-.023,0-.027h0l0-.03v-0.054l0-.013v-0.1a3.978,3.978,0,0,1,1.022-2.688l0,0v0h0a3.341,3.341,0,0,1,2.47-1.117h0.091l0.012,0h0.025l0.008,0H148l0.025,0h0.019l0.006,0,0.024,0h0.016l0.009,0,0.027,0h0.008l0.017,0,0.025,0h0l0.023,0a3.392,3.392,0,0,1,2.017,1.01l0.285-.313-2.089-2.274-4.831-5.262-2.091-2.277L126.9,347.152l2.091,2.275,4.831,5.262,2.089,2.277,9.36-10.194h0Zm5.7-.958a3.854,3.854,0,0,1-.293.541l-0.008.012,0,0.007-0.013.018-0.008.011,0,0.008-0.012.019-0.008.011,0,0.008-0.012.019-0.007.01-0.006.009-0.016.017,0,0.01-0.008.008-0.012.016-0.007.011-0.008.011-0.013.016-0.006.008-0.008.011-0.013.016-0.006.009-0.008.011-0.015.016,0,0.009h0l-0.023.025-0.006.008-0.023.028,0,0c-0.027.034-.056,0.065-0.083,0.1l0,0-0.026.027,0,0.007h0q-0.066.072-.135,0.138a2.978,2.978,0,0,1-.246.22l0,0-0.1.077h0l-0.006,0-0.055.039-0.008.007c-0.057.041-.119,0.083-0.18,0.12l-0.006,0-0.029.017,0,0-0.026.016-0.01.007-0.036.02-0.012.007-0.027.014,0,0c-0.036.021-.072,0.04-0.111,0.059l-0.006,0-0.03.014,0,0-0.079.036-0.009.006-0.029.013h0l-0.031.014-0.007,0-0.041.019-0.014,0-0.025.011-0.007,0-0.03.013h0l-0.027.011-0.013,0-0.04.015-0.01,0-0.032.01h0l-0.031.011-0.01,0-0.023.008-0.017.006-0.015,0-0.027.009,0,0-0.034.008h0l-0.029.009-0.013,0-0.02,0-0.023.006-0.007,0-0.035,0h0l-0.032.009-0.01,0-0.023,0-0.019.007h-0.016l-0.028,0,0,0-0.033.006,0,0-0.029,0-0.016,0-0.017,0-0.025,0-0.009,0-0.035,0a17.489,17.489,0,0,1,1.213,3.308,17.937,17.937,0,0,1,.554,4.437,17.25,17.25,0,0,1-4.448,11.694,14.544,14.544,0,0,1-10.741,4.847,14.057,14.057,0,0,1-6.152-1.418,15.328,15.328,0,0,1-4.957-3.851h-4.22a19.694,19.694,0,0,0,3.44,4.158l0.12,0.108,0.037,0.033,0.015,0.013,0.021,0.019,0.037,0.033,0.107,0.094,0.037,0.031,0.036,0.032,0.038,0.033,0.037,0.032,0,0,0.034,0.029,0.037,0.031,0.034,0.03h0l0.038,0.032,0.036,0.03,0.225,0.183,0.021,0.019,0.015,0.013L124,372l0.039,0.029c0.149,0.12.3,0.236,0.458,0.348l0.036,0.027,0,0,0.038,0.027c0.286,0.208.577,0.408,0.87,0.6,0.257,0.164.518,0.322,0.78,0.475l0.042,0.023,0.037,0.021,0.006,0,0.04,0.025,0.042,0.023,0.04,0.023h0l0.042,0.025,0.041,0.021,0.044,0.023v0l0.039,0.023,0.043,0.023,0.042,0.021,0,0,0.04,0.019,0.04,0.023,0.044,0.023,0.006,0,0.037,0.018,0.042,0.023,0.042,0.02,0.009,0.007,0.117,0.058,0.014,0.008,0.132,0.064,0.027,0.013a17.17,17.17,0,0,0,14.287.426l0.042-.017c0.511-.217,1.012-0.461,1.5-0.724h0l0.2-.11,0.008,0,0.125-.068,0.04-.026,0.027-.014,0.015-.008,0.038-.024,0.043-.023,0.04-.025,0.042-.025,0.019-.01,0.021-.012,0.041-.026,0.04-.024,0.042-.023,0,0,0.078-.046,0.039-.025,0.041-.027,0.04-.026,0.08-.05,0.041-.024,0.04-.025,0.038-.025,0.037-.024h0l0.041-.028,0.04-.027,0.04-.025,0.01-.008,0.071-.046,0.042-.028,0.038-.027,0.041-.026,0.04-.026,0.04-.029,0.04-.027,0.041-.027,0.04-.028,0.078-.056,0.041-.027,0.04-.029,0.038-.028,0.077-.056h0l0.039-.029,0.041-.029,0.037-.027,0.039-.03,0.04-.029,0.038-.029,0.041-.029,0.038-.03,0.008,0,0.03-.025,0.01-.007,0.067-.052,0.038-.031,0.037-.025,0,0,0.007-.009,0.069-.052,0.039-.031,0.038-.03,0.038-.031,0.039-.029,0.038-.031,0.037-.03,0.038-.032,0.013-.01,0.025-.018,0.037-.032,0.037-.031,0.039-.031,0.036-.031,0.005,0,0.032-.03,0.038-.031,0.075-.062,0.03-.025,0.006-.007,0.037-.033,0.038-.032,0.036-.031,0.037-.034,0.038-.031,0.037-.031,0.034-.033,0.039-.032,0.034-.033,0.01-.008,0.028-.025,0.035-.031,0.036-.034,0.01-.008c0.415-.382.818-0.783,1.2-1.2a21.012,21.012,0,0,0,5.42-14.243A21.822,21.822,0,0,0,152.6,350a21.264,21.264,0,0,0-1.623-4.189h0Zm-6.358-12.653,4.141,4.51,1.805-1.964-4.143-4.512-1.8,1.966h0ZM114.049,365.9h21.566v-2.919H114.049V365.9h0Zm32.489,6.75a19.125,19.125,0,0,1-4.331,2.677v1.6h4.331v-4.28h0Zm-19.051,2.676a18.556,18.556,0,0,1-2.167-1.14,19.85,19.85,0,0,1-2.162-1.538v4.282h4.329v-1.6Z" transform="translate(-113.063 -329.938)"/>
</svg>
