<svg xmlns="http://www.w3.org/2000/svg" width="13" height="18" viewBox="0 0 13 18">
  <defs>
    <style>
      .cls-1 {
        fill: #fff;
        fill-rule: evenodd;
      }
    </style>
  </defs>
  <path id="address.svg" class="cls-1" d="M583.5,562a0.812,0.812,0,0,0,.645-0.319c0.6-.788,5.854-7.789,5.854-11.132a6.5,6.5,0,1,0-13,0c0,3.343,5.256,10.344,5.855,11.132A0.811,0.811,0,0,0,583.5,562Zm0-16.358a4.9,4.9,0,0,1,4.874,4.907c0,2.083-3.088,6.791-4.874,9.264-1.786-2.473-4.875-7.181-4.875-9.264A4.9,4.9,0,0,1,583.5,545.639Zm3.249,4.907a3.25,3.25,0,1,0-3.249,3.272A3.263,3.263,0,0,0,586.752,550.546Zm-4.874,0a1.625,1.625,0,1,1,1.625,1.636A1.632,1.632,0,0,1,581.878,550.546Z" transform="translate(-577 -544)"/>
</svg>
