<svg xmlns="http://www.w3.org/2000/svg" xmlns:xlink="http://www.w3.org/1999/xlink" width="615" height="159.031" viewBox="0 0 615 159.031">
  <defs>
    <style>
      .cls-1 {
        filter: url(#filter);
      }

      .cls-2, .cls-6 {
        fill: #185a9d;
      }

      .cls-2, .cls-3 {
        fill-rule: evenodd;
      }

      .cls-3, .cls-4 {
        fill: #31be91;
      }

      .cls-4, .cls-5 {
        font-size: 14.97px;
      }

      .cls-5 {
        font-family: Montserrat;
        font-weight: 700;
        text-transform: uppercase;
      }
    </style>
    <filter id="filter" filterUnits="userSpaceOnUse">
      <feFlood result="flood" flood-color="#fff"/>
      <feComposite result="composite" operator="in" in2="SourceGraphic"/>
      <feBlend result="blend" in2="SourceGraphic"/>
    </filter>
  </defs>
  <g id="logo.white.svg" class="cls-1">
    <path id="Rectangle_2_copy" data-name="Rectangle 2 copy" class="cls-2" d="M284.511,743.752L272.987,802.6h-15.71v-0.008h-2.242l3.356-17.388c-3.142,6.11-6.51,11.919-10.032,17.388H228.328c2.514-3.242,4.979-6.7,7.361-10.352l-0.069-.161a137.641,137.641,0,0,0,10.117-17.6v-0.17l0.059,0.147c17.536-35.71,16.368-65.876-1.538-67.682-13.2-1.333-28.034,12.742-43.216,33.317h-4.649c18.808-26.765,42.325-45.932,59.948-45.1,17.164,0.812,23.3,20.775,17.373,48.759h10.8Zm-99.275,37.494L181.06,802.6H161.353l4.259-21.606L151,743.752h19.791l7.933,20.345,16.284-20.345H214.8Z" transform="translate(-151 -694.969)"/>
    <path id="Rectangle_2_copy_2" data-name="Rectangle 2 copy 2" class="cls-3" d="M207.655,802.6h-2.044L217.3,743.752h16.033l11.126,27.413c-3.808,7.272-8.693,15.173-10.236,17.637l-5.4-12.684-5.26,26.474H207.655V802.6Zm-37.646,3.942c-0.72,10.173,1.141,18.434,6.225,22.994,10.377,9.308,30.6-1.043,48.917-22.994h20.6c-25.781,38-58.724,57.731-73.8,42.034-7.861-8.185-9.1-23.774-5.39-42.034h3.449Z" transform="translate(-151 -694.969)"/>
    <text id="YORQINMEDICAL" class="cls-4" transform="translate(168.165 101.288) scale(3.333 3.354)"><tspan class="cls-5">YORQIN</tspan><tspan class="cls-6">MEDICAL</tspan></text>
  </g>
</svg>
