<svg id="logo.svg" xmlns="http://www.w3.org/2000/svg" width="220.594" height="57" viewBox="0 0 220.594 57">
  <metadata><?xpacket begin="﻿" id="W5M0MpCehiHzreSzNTczkc9d"?>
<x:xmpmeta xmlns:x="adobe:ns:meta/" x:xmptk="Adobe XMP Core 5.6-c138 79.159824, 2016/09/14-01:09:01        ">
   <rdf:RDF xmlns:rdf="http://www.w3.org/1999/02/22-rdf-syntax-ns#">
      <rdf:Description rdf:about=""/>
   </rdf:RDF>
</x:xmpmeta>
                                                                                                    
                                                                                                    
                                                                                                    
                                                                                                    
                                                                                                    
                                                                                                    
                                                                                                    
                                                                                                    
                                                                                                    
                                                                                                    
                                                                                                    
                                                                                                    
                                                                                                    
                                                                                                    
                                                                                                    
                                                                                                    
                                                                                                    
                                                                                                    
                                                                                                    
                                                                                                    
                           
<?xpacket end="w"?></metadata>
<defs>
    <style>
      .cls-1 {
        fill: #185a9d;
      }

      .cls-1, .cls-2 {
        fill-rule: evenodd;
      }

      .cls-2 {
        fill: #31be91;
      }
    </style>
  </defs>
  <path id="Rectangle_2_copy" data-name="Rectangle 2 copy" class="cls-1" d="M407.892,38.477l-4.134,21.1h-5.635v0h-0.8l1.2-6.233c-1.127,2.19-2.336,4.273-3.6,6.233h-7.186c0.9-1.162,1.787-2.4,2.641-3.711l-0.025-.058a49.293,49.293,0,0,0,3.629-6.31V49.431l0.022,0.053c6.29-12.8,5.871-23.616-.552-24.264-4.736-.478-10.056,4.568-15.5,11.944h-1.668c6.747-9.6,15.183-16.466,21.5-16.167,6.157,0.292,8.357,7.448,6.232,17.48h3.873ZM372.281,51.918l-1.5,7.655h-7.069l1.527-7.745L360,38.477h7.1l2.845,7.293,5.842-7.293h7.1Z" transform="translate(-360 -21)"/>
  <path id="Rectangle_2_copy_2" data-name="Rectangle 2 copy 2" class="cls-2" d="M380.323,59.573H379.59l4.193-21.1h5.752l3.991,9.827c-1.366,2.607-3.119,5.44-3.672,6.323l-1.937-4.547-1.886,9.491h-5.708v0Zm-13.5,1.413c-0.259,3.647.409,6.608,2.233,8.243,3.722,3.337,10.978-.374,17.547-8.243h7.388c-9.248,13.624-21.065,20.7-26.472,15.069-2.82-2.934-3.263-8.523-1.934-15.069h1.238Z" transform="translate(-360 -21)"/>
  <path id="YORQINMEDICAL" class="cls-1" d="M509.547,44.7l-5.388,9.342L498.718,44.7h-1.092V57.3H498.9V47.274l4.922,8.424h0.627l4.922-8.478V57.3h1.271V44.7h-1.092Zm6.5,11.448v-4.68h6.479V50.334h-6.479V45.852h7.266V44.7h-8.591V57.3h8.86V56.148h-7.535ZM526.693,57.3h5.1a7.416,7.416,0,0,0,3.508-.8,5.827,5.827,0,0,0,2.363-2.232,6.766,6.766,0,0,0,0-6.534A5.829,5.829,0,0,0,535.3,45.5a7.42,7.42,0,0,0-3.508-.8h-5.1V57.3Zm1.325-1.152v-10.3h3.7a6.047,6.047,0,0,1,2.881.657,4.751,4.751,0,0,1,1.915,1.818,5.594,5.594,0,0,1,0,5.346,4.749,4.749,0,0,1-1.915,1.818,6.043,6.043,0,0,1-2.881.657h-3.7ZM541.477,57.3H542.8V44.7h-1.324V57.3Zm10.846,0.108a6.891,6.891,0,0,0,2.587-.477,5.415,5.415,0,0,0,2.013-1.377l-0.841-.846a4.91,4.91,0,0,1-3.705,1.512,5.42,5.42,0,0,1-2.7-.684,4.982,4.982,0,0,1-1.906-1.872,5.495,5.495,0,0,1,0-5.328,4.984,4.984,0,0,1,1.906-1.872,5.423,5.423,0,0,1,2.7-.684,4.978,4.978,0,0,1,3.705,1.494l0.841-.846a5.347,5.347,0,0,0-2-1.368,6.942,6.942,0,0,0-2.578-.468,6.862,6.862,0,0,0-3.365.828,6.025,6.025,0,0,0-2.353,2.295,6.766,6.766,0,0,0,0,6.57,6.038,6.038,0,0,0,2.344,2.3,6.805,6.805,0,0,0,3.356.828h0ZM568.79,57.3h1.4l-5.728-12.6h-1.306l-5.728,12.6H558.8l1.5-3.366h6.98Zm-8-4.446,3.007-6.768,3.007,6.768h-6.014ZM572.262,57.3H580.6V56.148h-7.016V44.7h-1.325V57.3Z" transform="translate(-360 -21)"/>
  <path id="YORQINMEDICAL_copy" data-name="YORQINMEDICAL copy" class="cls-2" d="M432.691,44.7h-2.845L426.5,50.3l-3.347-5.6h-3.079l4.85,8.1v4.5h2.9V52.836Zm6.748,12.816a7.224,7.224,0,0,0,3.508-.846,6.441,6.441,0,0,0,0-11.34,7.715,7.715,0,0,0-7.025,0,6.263,6.263,0,0,0-2.452,2.331,6.735,6.735,0,0,0,0,6.678,6.26,6.26,0,0,0,2.452,2.331,7.276,7.276,0,0,0,3.517.846h0Zm0-2.484a3.96,3.96,0,0,1-2-.513,3.675,3.675,0,0,1-1.405-1.431,4.529,4.529,0,0,1,0-4.176,3.675,3.675,0,0,1,1.405-1.431,4.175,4.175,0,0,1,4.01,0,3.675,3.675,0,0,1,1.4,1.431,4.529,4.529,0,0,1,0,4.176,3.675,3.675,0,0,1-1.4,1.431,3.96,3.96,0,0,1-2,.513h0ZM459.575,57.3l-2.81-4.05a4.1,4.1,0,0,0,2.577-3.978,4.386,4.386,0,0,0-.662-2.43,4.305,4.305,0,0,0-1.888-1.584A6.932,6.932,0,0,0,453.9,44.7h-5.423V57.3h2.9V53.79h2.667l2.416,3.51h3.115Zm-3.168-8.028a2.008,2.008,0,0,1-.68,1.62,3,3,0,0,1-1.987.576h-2.363V47.076h2.363a3.035,3.035,0,0,1,1.987.567,2,2,0,0,1,.68,1.629h0Zm17.486,7.83a2.716,2.716,0,0,1-2.04.936,2.021,2.021,0,0,1-.9-0.207,3.182,3.182,0,0,1-.868-0.675,6.448,6.448,0,0,0,1.128-11.826,7.717,7.717,0,0,0-7.026,0,6.263,6.263,0,0,0-2.452,2.331A6.4,6.4,0,0,0,460.845,51a6.466,6.466,0,0,0,.743,3.087,6.163,6.163,0,0,0,2.076,2.277,7.019,7.019,0,0,0,3.034,1.1,10.921,10.921,0,0,0,2.577,2.133,5.269,5.269,0,0,0,2.524.6,4.54,4.54,0,0,0,1.906-.4,4.012,4.012,0,0,0,1.477-1.152ZM463.781,51a4.227,4.227,0,0,1,.51-2.088,3.668,3.668,0,0,1,1.405-1.431,4.173,4.173,0,0,1,4.009,0,3.668,3.668,0,0,1,1.405,1.431,4.529,4.529,0,0,1,0,4.176,3.668,3.668,0,0,1-1.405,1.431,4.173,4.173,0,0,1-4.009,0,3.668,3.668,0,0,1-1.405-1.431,4.226,4.226,0,0,1-.51-2.088h0Zm12.958,6.3h2.9V44.7h-2.9V57.3Zm14.5-12.6v7.65l-6.229-7.65h-2.4V57.3h2.863V49.65l6.247,7.65h2.38V44.7h-2.863Z" transform="translate(-360 -21)"/>
</svg>
