<svg xmlns="http://www.w3.org/2000/svg" width="17" height="17" viewBox="0 0 17 17">
  <defs>
    <style>
      .cls-1 {
        fill: #fff;
        fill-rule: evenodd;
      }
    </style>
  </defs>
  <path id="phone.svg" class="cls-1" d="M587.4,499h-0.037a9.825,9.825,0,0,1-3.8-.884,0.664,0.664,0,0,1,.516-1.222h0.009a8.6,8.6,0,0,0,3.277.771h0.03a4.076,4.076,0,0,0,2.959-1.077h0a1.2,1.2,0,0,0-.06-1.666c-1.783-1.717-2.625-1.592-3.4-.833l-1.24,1.23a0.672,0.672,0,0,1-.737.135,13.531,13.531,0,0,1-3.623-2.668l-0.087-.091a13.428,13.428,0,0,1-2.666-3.613,0.66,0.66,0,0,1,.135-0.736l1.231-1.241c0.759-.779.884-1.621-0.835-3.406a1.2,1.2,0,0,0-1.664-.062l0,0.006a4.106,4.106,0,0,0-1.076,2.991,11.271,11.271,0,0,0,3.617,7.413,0.008,0.008,0,0,1,.007.005,14.826,14.826,0,0,0,1.461,1.269,0.664,0.664,0,0,1-.806,1.056h0A16.369,16.369,0,0,1,579.02,495a0.01,0.01,0,0,0,0-.007h0c-2.5-2.5-4-5.622-4.013-8.353a5.392,5.392,0,0,1,1.477-3.95c0.009-.006.017-0.017,0.027-0.023l0.018-.017a2.526,2.526,0,0,1,3.507.126,6.178,6.178,0,0,1,1.625,2.447,2.739,2.739,0,0,1-.8,2.811h0l-0.895.9a13.446,13.446,0,0,0,2.189,2.828l0.087,0.091a13.3,13.3,0,0,0,2.832,2.187l0.9-.889v0a2.739,2.739,0,0,1,2.81-.794,6.1,6.1,0,0,1,2.445,1.621,2.527,2.527,0,0,1,.127,3.508l-0.017.022c-0.008.006-.017,0.017-0.025,0.023A5.365,5.365,0,0,1,587.4,499Zm0.406-9.73a0.663,0.663,0,0,0,.449-0.823v0l-0.009-.028a3.82,3.82,0,0,0-2.7-2.676,0.665,0.665,0,1,0-.369,1.277l0.015,0a2.317,2.317,0,0,1,1.139.652,2.377,2.377,0,0,1,.645,1.116l0.01,0.035a0.664,0.664,0,0,0,.637.475,0.707,0.707,0,0,0,.188-0.028h0Zm3.491,0.833A7.347,7.347,0,0,0,584,482.7h-0.108a0.663,0.663,0,0,0,0,1.326h0.03a6.025,6.025,0,0,1,6.04,6.011h0V490.1a0.665,0.665,0,0,0,.661.668h0a0.664,0.664,0,0,0,.665-0.662h0Z" transform="translate(-575 -482)"/>
</svg>
