<svg xmlns="http://www.w3.org/2000/svg" width="23" height="19" viewBox="0 0 23 19">
  <defs>
    <style>
      .cls-1 {
        fill: #fff;
        fill-rule: evenodd;
      }
    </style>
  </defs>
  <path id="zapataya.svg" class="cls-1" d="M893.914,410.588a4.633,4.633,0,1,0,.514-9.243,4.506,4.506,0,0,0-2.428.711,9.281,9.281,0,0,1,5.916-9.141v-1.292C886.089,394.426,885.975,409.941,893.914,410.588Zm-12.423,0a4.633,4.633,0,1,0,.513-9.243,4.505,4.505,0,0,0-2.427.711,9.278,9.278,0,0,1,5.916-9.141v-1.292C873.666,394.426,873.552,409.941,881.491,410.588Z" transform="translate(-876 -391.625)"/>
</svg>
